<svg width="24" height="24" viewBox="0 0 24 24" fill="none" xmlns="http://www.w3.org/2000/svg">
<path fill-rule="evenodd" clip-rule="evenodd" d="M13.6165 0.707373C13.3107 0.578057 12.5483 0.304805 11.7803 0.724874C11.5564 0.847286 11.2798 1.0578 11.0518 1.23596C10.7876 1.44237 10.46 1.70902 10.0888 2.01659C9.34549 2.63261 8.3934 3.44125 7.36058 4.31989L7.05044 4.58375C6.0782 5.41096 5.04458 6.29041 4.04066 7.13408L4.03019 7.14287C2.97001 8.03376 1.94572 8.88241 1.06455 9.58545C0.41698 10.1021 0.31086 11.0459 0.827525 11.6935C1.34419 12.3411 2.28799 12.4472 2.93556 11.9305C3.11837 11.7847 3.30685 11.633 3.50006 11.4764V20.5688C3.50006 21.3354 4.07781 21.9773 4.83741 22.0599L4.86169 22.0624L4.86347 22.0625L4.90783 22.0666L5.03406 22.0778C5.14458 22.0875 5.3058 22.1014 5.51084 22.1182C5.92084 22.1519 6.50655 22.1975 7.21281 22.2455C8.62331 22.3413 10.5238 22.4474 12.4699 22.4866C15.0993 22.5395 18.0053 22.4771 19.8554 22.0261C20.5273 21.8623 21.0001 21.2603 21.0001 20.5688V11.6323C21.1508 11.7808 21.3018 11.9289 21.4528 12.0761C22.0459 12.6545 22.9956 12.6426 23.574 12.0495C24.1523 11.4564 24.1404 10.5067 23.5473 9.92835C22.4353 8.8439 21.3209 7.71196 20.2493 6.62214L20.1431 6.51404C19.1149 5.46835 18.1234 4.45988 17.2326 3.59475C16.3211 2.70957 15.4649 1.92483 14.748 1.39054C14.3961 1.12828 14.0081 0.872953 13.6165 0.707373ZM12.0031 4.32649C12.3146 4.06831 12.581 3.85112 12.7959 3.68092C12.8444 3.71466 12.8974 3.75285 12.9552 3.79593C13.504 4.20492 14.2415 4.87183 15.1425 5.74691C16.003 6.58255 16.9671 7.56288 18.0001 8.61347V19.3099C16.5437 19.4896 14.5681 19.5282 12.5302 19.4872C10.6481 19.4493 8.79865 19.3463 7.41619 19.2524C7.08067 19.2296 6.7732 19.2073 6.50006 19.1868V8.98502C7.34172 8.27488 8.1893 7.55372 8.98779 6.87432L9.30447 6.6049C10.3408 5.72328 11.2775 4.92783 12.0031 4.32649Z" fill="#5D3CA4"/>
</svg>
