<svg width="25" height="24" viewBox="0 0 25 24" fill="none" xmlns="http://www.w3.org/2000/svg">
<path fill-rule="evenodd" clip-rule="evenodd" d="M23.5747 3.35797C23.8047 3.58766 23.934 3.89941 23.934 4.22449L23.934 10.7697C23.9445 13.2242 23.9654 16.3564 24 20.6352C24.0026 20.9623 23.8742 21.2769 23.6435 21.5088C23.4127 21.7407 23.0987 21.8706 22.7716 21.8695L22.4021 21.8684C22.3405 21.8696 22.2836 21.8695 22.2454 21.8695H22.2433L22.2188 21.8693L22.117 21.8673C18.1517 21.7886 16.6846 21.8004 13.6135 21.8251C13.1937 21.8285 12.7439 21.8321 12.2536 21.8358C10.0467 21.8523 6.64179 21.8696 1.85833 21.8696C1.7182 21.8696 1.41656 21.8593 1.10816 21.7078C0.936259 21.6234 0.729722 21.4789 0.568861 21.2403C0.407191 21.0005 0.34008 20.7372 0.336431 20.4941L0.276399 17.9215C0.25799 17.2041 0.236697 16.3923 0.214264 15.5371C0.116074 11.7938 -0.00398193 7.21698 0.000101394 6.06213C0.000207894 6.03201 0.0002478 6.00104 0.000288672 5.9693C0.000797116 5.57498 0.00145727 5.06301 0.131819 4.61525C0.315734 3.98356 0.71619 3.53638 1.28364 3.22131C1.46333 3.12154 1.66524 3.0686 1.87078 3.06738L9.85787 3.01997L9.86323 3.01995L22.7076 3C23.0327 2.9995 23.3446 3.12828 23.5747 3.35797ZM12.242 19.3868C12.7281 19.3832 13.1749 19.3796 13.5925 19.3762C16.5061 19.3527 18.0005 19.3407 21.5411 19.4067C21.5124 15.7541 21.4945 12.9915 21.485 10.7776C21.4756 8.5699 21.4744 6.90724 21.4793 5.45089L9.8724 5.46891L9.86704 5.46893L2.66225 5.51171L12.499 11.5441C12.9042 11.2233 13.4638 10.7879 14.1014 10.3134C15.3837 9.35921 17.0526 8.19274 18.4248 7.50665C19.0297 7.20422 19.7652 7.44939 20.0676 8.05426C20.3701 8.65913 20.1249 9.39465 19.52 9.69709C18.3568 10.2787 16.8366 11.3307 15.5635 12.2781C14.9369 12.7443 14.3874 13.1722 13.9947 13.4835C13.7985 13.639 13.6419 13.765 13.5349 13.8516C13.4815 13.895 13.4404 13.9285 13.413 13.9509L13.3823 13.976L13.375 13.982L13.3734 13.9833C12.97 14.3159 12.3997 14.356 11.954 14.0827L2.50119 8.28575L2.72158 17.7301C2.73739 18.3448 2.75124 18.8967 2.76211 19.356C2.77732 19.3555 2.7926 19.3553 2.80795 19.3553L12.242 19.3868Z" fill="#1C1B1B" fill-opacity="0.5"/>
</svg>
