<svg width="16" height="16" viewBox="0 0 16 16" fill="none" xmlns="http://www.w3.org/2000/svg">
<path fill-rule="evenodd" clip-rule="evenodd" d="M0.666504 2.83333C0.666504 2.3731 1.0396 2 1.49984 2H3.83317C4.23832 2 4.58476 2.29139 4.65418 2.69055L4.8854 4.02006L4.92042 4.21082C5.01247 3.82087 5.37569 3.54354 5.7885 3.57191C7.33143 3.67797 9.39829 3.62131 11.1035 3.53497C11.951 3.49206 12.7 3.44233 13.2369 3.40334C13.5053 3.38385 13.7204 3.36707 13.8681 3.35518C13.9419 3.34924 13.9989 3.34453 14.0372 3.34132L14.0804 3.33766L14.0943 3.33646C14.3588 3.31347 14.6184 3.41786 14.7933 3.61753C14.9683 3.81722 15.0376 4.08829 14.98 4.34744L13.6467 10.3474C13.5619 10.7287 13.2238 11 12.8332 11H5.1665C4.7643 11 4.41949 10.7127 4.34687 10.3171L3.24401 4.30946L3.13226 3.66667H1.49984C1.0396 3.66667 0.666504 3.29357 0.666504 2.83333ZM13.1091 5.08336C12.5906 5.11968 11.9262 5.16212 11.1878 5.1995C9.47334 5.28631 7.32262 5.34796 5.67421 5.23466C5.4085 5.21639 5.18047 5.07548 5.04161 4.871L5.86078 9.33333H12.1647L13.1091 5.08336Z" fill="#1C1B1B"/>
<path d="M6.07105 11.6125C5.86079 11.5126 5.63591 11.4829 5.41617 11.509C4.94722 11.5377 4.51108 11.803 4.29627 12.2423C4.28746 12.2604 4.27911 12.2785 4.27122 12.2967C4.26128 12.315 4.25173 12.3334 4.2426 12.3521C4.2166 12.4299 4.19732 12.5086 4.18468 12.5874C4.17257 12.6582 4.16661 12.7294 4.16657 12.8003C4.16163 13.3106 4.43451 13.7959 4.95961 14.0453C5.55406 14.2976 6.37988 14.1724 6.69934 13.519C6.7493 13.4169 6.78486 13.3079 6.8067 13.1956C6.91207 12.6537 6.69852 12.0327 6.24316 11.7129C6.18915 11.675 6.13173 11.6413 6.07105 11.6125Z" fill="#1C1B1B"/>
<path d="M12.0711 11.6125C11.8608 11.5126 11.6359 11.4829 11.4162 11.509C10.9472 11.5377 10.5111 11.803 10.2963 12.2423C10.2875 12.2604 10.2791 12.2785 10.2712 12.2967C10.2613 12.315 10.2517 12.3334 10.2426 12.3521C10.2166 12.4299 10.1973 12.5086 10.1847 12.5874C10.1726 12.6582 10.1666 12.7294 10.1666 12.8003C10.1616 13.3106 10.4345 13.7959 10.9596 14.0453C11.5541 14.2976 12.3799 14.1724 12.6993 13.519C12.7493 13.4169 12.7849 13.3079 12.8067 13.1956C12.9121 12.6537 12.6985 12.0327 12.2432 11.7129C12.1891 11.675 12.1317 11.6413 12.0711 11.6125Z" fill="#1C1B1B"/>
</svg>
