<svg width="20" height="20" viewBox="0 0 20 20" fill="none" xmlns="http://www.w3.org/2000/svg">
<path fill-rule="evenodd" clip-rule="evenodd" d="M0.833496 3.54167C0.833496 2.96637 1.29987 2.5 1.87516 2.5H4.79183C5.29826 2.5 5.73132 2.86424 5.81809 3.36319L6.10711 5.02507L6.15089 5.26353C6.26595 4.77608 6.71998 4.42942 7.23599 4.46489C9.16465 4.59746 11.7482 4.52664 13.8798 4.41871C14.9392 4.36507 15.8754 4.30292 16.5465 4.25418C16.882 4.22982 17.1509 4.20883 17.3355 4.19398C17.4278 4.18655 17.499 4.18066 17.5469 4.17664L17.6009 4.17208L17.6183 4.17058C17.9489 4.14184 18.2734 4.27232 18.492 4.52192C18.7107 4.77152 18.7973 5.11037 18.7254 5.4343L17.0587 12.9343C16.9528 13.4109 16.5301 13.75 16.0418 13.75H6.4585C5.95574 13.75 5.52473 13.3909 5.43395 12.8964L4.05538 5.38682L3.91569 4.58333H1.87516C1.29987 4.58333 0.833496 4.11696 0.833496 3.54167ZM16.3868 6.3542C15.7386 6.3996 14.9081 6.45265 13.9851 6.49938C11.842 6.60789 9.15365 6.68496 7.09313 6.54332C6.76099 6.52049 6.47595 6.34435 6.30238 6.08875L7.32634 11.6667H15.2062L16.3868 6.3542Z" fill="#1C1B1B"/>
<path d="M7.58918 14.5156C7.32635 14.3907 7.04526 14.3536 6.77057 14.3862C6.18439 14.4221 5.63922 14.7537 5.3707 15.3029C5.35969 15.3254 5.34926 15.3481 5.3394 15.3709C5.32696 15.3937 5.31503 15.4168 5.30362 15.4401C5.27112 15.5374 5.24702 15.6358 5.23121 15.7342C5.21607 15.8228 5.20863 15.9118 5.20858 16.0004C5.2024 16.6383 5.54351 17.2449 6.19987 17.5566C6.94294 17.872 7.97522 17.7156 8.37455 16.8988C8.43699 16.7711 8.48144 16.6349 8.50874 16.4944C8.64046 15.8171 8.37352 15.0409 7.80431 14.6411C7.7368 14.5937 7.66503 14.5516 7.58918 14.5156Z" fill="#1C1B1B"/>
<path d="M15.0892 14.5156C14.8264 14.3907 14.5453 14.3536 14.2706 14.3862C13.6844 14.4221 13.1392 14.7537 12.8707 15.3029C12.8597 15.3254 12.8493 15.3481 12.8394 15.3709C12.827 15.3937 12.815 15.4168 12.8036 15.4401C12.7711 15.5374 12.747 15.6358 12.7312 15.7342C12.7161 15.8228 12.7086 15.9118 12.7086 16.0004C12.7024 16.6383 13.0435 17.2449 13.6999 17.5566C14.4429 17.872 15.4752 17.7156 15.8745 16.8988C15.937 16.7711 15.9814 16.6349 16.0087 16.4944C16.1405 15.8171 15.8735 15.0409 15.3043 14.6411C15.2368 14.5937 15.165 14.5516 15.0892 14.5156Z" fill="#1C1B1B"/>
</svg>
