<svg width="20" height="20" viewBox="0 0 20 20" fill="none" xmlns="http://www.w3.org/2000/svg">
<path fill-rule="evenodd" clip-rule="evenodd" d="M19.2466 2.45428C19.4613 2.65154 19.5835 2.92978 19.5835 3.22136V13.638C19.5835 14.2133 19.1171 14.6797 18.5418 14.6797H1.87516C1.29987 14.6797 0.833496 14.2133 0.833496 13.638V3.22136C0.833496 2.64606 1.29987 2.17969 1.87516 2.17969C2.23517 2.17969 2.55253 2.36232 2.73963 2.63999C2.95021 2.57704 3.18061 2.58032 3.39693 2.66003C3.40107 2.66067 3.40555 2.66135 3.41038 2.66205C3.47938 2.67209 3.58962 2.68323 3.74767 2.69339C4.06087 2.71354 4.49824 2.72601 5.04029 2.73051C6.12067 2.73947 7.5644 2.71642 9.15071 2.66973C12.3244 2.5763 16.0247 2.38957 18.4537 2.18342C18.7443 2.15876 19.0318 2.25701 19.2466 2.45428ZM3.35565 2.6522C3.35565 2.6522 3.36147 2.65312 3.37116 2.65565C3.36016 2.65358 3.35565 2.6522 3.35565 2.6522ZM3.10743 4.72324C3.06622 4.71725 2.9982 4.70735 2.91683 4.68898V12.5964H17.5002V4.34756C15.0961 4.52146 11.9533 4.67146 9.21201 4.75216C7.61358 4.79921 6.14064 4.82304 5.02302 4.81377C4.46607 4.80915 3.98411 4.79624 3.61397 4.77243C3.43035 4.76062 3.25792 4.74515 3.11028 4.72366L3.10743 4.72324ZM11.02 5.86414C10.8997 5.42171 10.4952 5.09636 10.0147 5.09636C8.03706 5.09636 6.64747 6.92514 6.64747 8.71378C6.64747 10.5867 8.11467 12.1797 10.0147 12.1797C11.9148 12.1797 13.382 10.5867 13.382 8.71378C13.382 8.05631 13.2229 7.62077 12.9604 7.14774C12.8503 6.94922 12.241 6.04086 11.02 5.86414ZM9.54288 8.75923C9.43232 9.07085 9.18808 9.29754 8.89697 9.39688C9.12443 9.82571 9.55704 10.0964 10.0147 10.0964C10.6834 10.0964 11.2986 9.51857 11.2986 8.71378C11.2986 8.49544 11.2737 8.40466 11.1514 8.18148C11.1473 8.17599 11.1403 8.167 11.1303 8.15536C11.1021 8.12268 11.0589 8.07975 11.0016 8.04003C10.9024 7.97132 10.7344 7.89017 10.44 7.92853C10.1672 7.96408 9.95384 8.12373 9.77801 8.35179C9.69201 8.46333 9.62903 8.57459 9.58835 8.65729C9.56847 8.6977 9.55518 8.72869 9.54812 8.74601C9.5454 8.75269 9.54366 8.75718 9.54288 8.75923ZM10.6479 17.2727C7.91363 17.3832 4.97993 17.5699 3.11497 17.7082C2.54125 17.7507 2.04168 17.3201 1.99914 16.7464C1.95661 16.1726 2.38722 15.6731 2.96094 15.6305C4.84275 15.491 7.80052 15.3027 10.5637 15.191C13.2753 15.0814 15.9424 15.0377 17.1496 15.2231C17.7182 15.3104 18.1084 15.8422 18.021 16.4108C17.9337 16.9794 17.402 17.3696 16.8333 17.2823C15.87 17.1343 13.4337 17.16 10.6479 17.2727Z" fill="#1C1B1B"/>
</svg>
