<svg width="16" height="16" viewBox="0 0 16 16" fill="none" xmlns="http://www.w3.org/2000/svg">
<path fill-rule="evenodd" clip-rule="evenodd" d="M5.37208 2.21291C5.71473 1.90565 6.24159 1.93435 6.54884 2.27701C8.27229 4.19902 9.39939 5.25927 11.2447 6.99513C11.3736 7.11643 11.5061 7.24103 11.6425 7.36945C11.8155 7.53234 11.9108 7.76137 11.9043 7.99892C11.8978 8.23648 11.7902 8.45997 11.6086 8.61319C9.18947 10.6537 7.91239 11.7677 6.10725 13.6896C5.79216 14.025 5.26478 14.0416 4.92932 13.7265C4.59385 13.4114 4.57734 12.884 4.89243 12.5485C6.23347 11.1208 7.84823 8.87357 9.23812 7.66667C7.93504 6.43112 6.72696 4.97214 5.30798 3.38968C5.00072 3.04702 5.02942 2.52016 5.37208 2.21291Z" fill="#1C1B1B"/>
</svg>
