<svg width="20" height="20" viewBox="0 0 20 20" fill="none" xmlns="http://www.w3.org/2000/svg">
<path fill-rule="evenodd" clip-rule="evenodd" d="M12.8375 1.09956C12.3998 0.830523 11.8312 0.920888 11.4984 1.31239L11.1919 1.67233C10.9953 1.90284 10.7126 2.23403 10.368 2.63646C9.67884 3.44143 8.74288 4.5309 7.75522 5.66956C7.55452 5.90094 7.35231 6.13363 7.15012 6.36577C7.15012 6.36577 6.17292 7.51764 5.77616 7.93423C4.48509 9.39815 3.35058 10.6516 2.82372 11.1534C2.68391 11.2865 2.53959 11.4453 2.42798 11.6295C2.32157 11.8052 2.18572 12.1022 2.22456 12.4722C2.26833 12.889 2.50804 13.1815 2.74783 13.3498C2.96069 13.4991 3.18546 13.5638 3.33945 13.5964C3.65231 13.6626 4.00692 13.6622 4.31649 13.6453C4.6443 13.6275 5.00372 13.5857 5.35979 13.5336C5.91622 13.452 6.49941 13.3398 6.99985 13.2344L6.66909 18.5895C6.64067 19.0496 6.91807 19.4737 7.35102 19.632C7.78397 19.7903 8.2695 19.6452 8.54461 19.2753C9.52454 17.9578 10.9709 16.0634 12.4179 14.2597C12.8146 13.8431 13.7392 12.6411 13.7392 12.6411C14.4245 11.8183 15.07 11.0733 15.623 10.4801C15.9619 10.1166 16.2558 9.82128 16.496 9.60377C16.6159 9.49519 16.7146 9.41315 16.7926 9.35453C16.8699 9.29646 16.9066 9.27671 16.9066 9.27671C17.3462 9.0674 17.5821 8.58154 17.4748 8.10667C17.3675 7.63179 16.9456 7.29457 16.4588 7.29457H12.5229C12.5463 6.70289 12.5897 6.01293 12.6616 5.31854C12.7857 4.12015 12.9836 3.03071 13.2525 2.39039C13.4515 1.91665 13.2753 1.36859 12.8375 1.09956ZM10.5317 5.64339C10.5342 5.64047 10.5367 5.63755 10.5392 5.63463C10.4488 6.69122 10.4171 7.68581 10.4171 8.33623C10.4171 8.91153 10.8835 9.3779 11.4588 9.3779H13.8063C13.3186 9.91487 12.7835 10.5356 12.2296 11.1985L10.8567 12.8765C10.2117 13.6792 9.56651 14.5005 8.9606 15.2834L9.16513 11.9719C9.18565 11.6398 9.04625 11.3178 8.79002 11.1055C8.53381 10.8933 8.19108 10.8163 7.86859 10.8982L7.86592 10.8988L7.85402 10.9018L7.8052 10.914C7.76196 10.9247 7.69797 10.9404 7.61666 10.96C7.45391 10.9991 7.22246 11.0534 6.94967 11.1139C6.51375 11.2104 5.98205 11.3202 5.46067 11.4084C5.56376 11.2961 5.67041 11.1791 5.78019 11.0582L10.5341 5.63037L10.5317 5.64339ZM3.77081 11.5582C3.76534 11.5571 3.76649 11.5569 3.77307 11.5587L3.77081 11.5582Z" fill="#1C1B1B"/>
</svg>
