<svg width="20" height="20" viewBox="0 0 20 20" fill="none" xmlns="http://www.w3.org/2000/svg">
<path fill-rule="evenodd" clip-rule="evenodd" d="M7.88083 1.52653C7.9755 1.05841 8.43173 0.755666 8.89985 0.850335C10.1586 1.10489 11.3154 1.56159 12.234 2.06085C13.0797 2.52047 13.8216 3.06946 14.2184 3.60329C15.346 4.72883 16.0008 5.96148 16.0447 7.31724C16.0889 8.68116 15.5087 10.0015 14.5141 11.2785C14.2726 11.5886 14.0103 11.8677 13.7315 12.1155C17.3851 13.0984 19.1668 16.0093 19.1668 18.3015C19.1668 18.7791 18.7797 19.1663 18.3021 19.1663C17.8245 19.1663 17.0835 18.8106 17.0835 18.333C17.0835 16.5688 15.0002 14.1663 11.0168 13.749C10.9418 13.749 10.8674 13.7492 10.7935 13.7497C10.3629 13.8132 9.92653 13.8248 9.49266 13.7839C7.73967 13.8721 6.89316 14.0204 5.8335 14.583C4.54963 15.2646 3.46544 16.1385 2.91683 18.333C2.80099 18.7963 1.95207 19.2563 1.48873 19.1405C1.02539 19.0247 0.743686 18.5551 0.859521 18.0918C1.49688 15.5424 2.68647 13.8912 4.50208 12.9273C5.08402 12.6184 5.71778 12.3874 6.39809 12.2166C6.28085 12.1176 6.16602 12.013 6.05385 11.9028C4.89306 10.7628 4.2179 9.51249 4.17327 8.13511C4.12907 6.77119 4.70927 5.45082 5.70389 4.17383C6.37723 3.30933 7.21196 2.68519 8.11751 2.31012C7.91942 2.11207 7.82114 1.82166 7.88083 1.52653ZM10.7935 11.2785C10.4184 11.2819 9.85252 11.2625 9.49266 11.2785C8.67566 11.1764 8.16821 11.0724 7.50016 10.4163C6.83212 9.76026 6.69278 8.71731 6.66683 7.91634C6.64044 7.10191 6.64676 6.51202 7.50016 5.41634C9.03984 3.43955 11.1832 3.29706 12.9168 4.99967C13.869 5.93481 13.9325 6.51627 13.9585 7.31724C13.9849 8.13168 13.7702 8.90399 12.9168 9.99967C12.2371 10.8724 11.7231 11.1138 10.7935 11.2785Z" fill="#1C1B1B"/>
</svg>
