<svg width="16" height="16" viewBox="0 0 16 16" fill="none" xmlns="http://www.w3.org/2000/svg">
<path fill-rule="evenodd" clip-rule="evenodd" d="M6.30486 1.22181C6.38059 0.847314 6.74558 0.605119 7.12008 0.680854C8.12705 0.884496 9.05253 1.24986 9.7874 1.64927C10.4639 2.01696 11.0575 2.45615 11.3749 2.88322C12.277 3.78365 12.8008 4.76977 12.836 5.85438C12.8713 6.94551 12.4072 8.0018 11.6115 9.0234C11.4183 9.27144 11.2085 9.49475 10.9854 9.69301C13.9083 10.4793 15.3337 12.808 15.3337 14.6418C15.3337 15.0239 15.0239 15.3336 14.6418 15.3336C14.2598 15.3336 13.667 15.0491 13.667 14.667C13.667 13.2557 12.0003 11.3337 8.81364 10.9998C8.75363 10.9998 8.6941 11 8.63503 11.0003C8.29056 11.0511 7.94142 11.0605 7.59433 11.0277C6.19193 11.0983 5.51472 11.2169 4.66699 11.667C3.6399 12.2123 2.77255 12.9114 2.33366 14.667C2.24099 15.0377 1.56185 15.4056 1.19118 15.313C0.82051 15.2203 0.595144 14.8447 0.687812 14.474C1.1977 12.4345 2.14937 11.1136 3.60186 10.3424C4.06742 10.0953 4.57442 9.91047 5.11867 9.77386C5.02488 9.69463 4.93301 9.61096 4.84328 9.52284C3.91464 8.61083 3.37452 7.61058 3.33881 6.50867C3.30345 5.41753 3.76761 4.36124 4.56331 3.33965C5.10198 2.64805 5.76976 2.14874 6.4942 1.84868C6.33573 1.69024 6.25711 1.45792 6.30486 1.22181ZM8.63503 9.0234C8.33489 9.0261 7.88221 9.01059 7.59433 9.0234C6.94072 8.94171 6.53476 8.85853 6.00033 8.33366C5.46589 7.80879 5.35442 6.97443 5.33366 6.33366C5.31255 5.68211 5.3176 5.2102 6.00033 4.33366C7.23207 2.75223 8.94673 2.63823 10.3337 4.00033C11.0954 4.74843 11.1462 5.2136 11.167 5.85438C11.1881 6.50593 11.0164 7.12378 10.3337 8.00033C9.78986 8.6985 9.37869 8.89165 8.63503 9.0234Z" fill="#1C1B1B"/>
</svg>
