<svg width="24" height="24" viewBox="0 0 24 24" fill="none" xmlns="http://www.w3.org/2000/svg">
<path fill-rule="evenodd" clip-rule="evenodd" d="M12.0006 1.75C12.447 1.75022 12.8595 1.9885 13.0826 2.37514L16.5454 8.37453C18.6313 8.35022 20.0242 8.52665 22.2549 8.99117C22.7222 9.08848 23.0932 9.44342 23.2112 9.90592C23.3292 10.3684 23.1735 10.8578 22.8099 11.167L17.991 15.2662C18.8968 17.6323 19.2389 19.2292 19.427 21.7976C19.4612 22.2641 19.232 22.7107 18.833 22.955C18.434 23.1992 17.9321 23.2003 17.5321 22.9577L12 19.6022L6.46794 22.9577C6.06554 23.2017 5.56016 23.1991 5.16033 22.9508C4.76049 22.7026 4.53398 22.2508 4.57427 21.7819C4.78377 19.3433 5.13635 17.7694 5.98677 15.3883C4.06938 14.0933 2.80258 13.0617 1.05297 11.0308C0.757653 10.6879 0.670649 10.2123 0.825493 9.78715C0.980336 9.36199 1.35285 9.05371 1.79946 8.98111C4.32003 8.57138 5.90052 8.40669 8.30569 8.38993C9.01052 6.2039 9.57671 4.69275 10.918 2.37408C11.1416 1.98766 11.5542 1.74978 12.0006 1.75ZM12.0457 5.57961C11.3918 6.95815 10.9914 8.18498 10.4104 10.0179C10.2449 10.5403 9.75835 10.8939 9.21035 10.8902C7.32628 10.8773 6.02889 10.9356 4.55759 11.109C5.61055 12.1071 6.64127 12.8335 8.18645 13.8488C8.67483 14.1697 8.8757 14.7862 8.67012 15.3332C8.03102 17.0339 7.65171 18.2267 7.405 19.4653L11.3518 17.0714C11.7502 16.8298 12.2499 16.8298 12.6483 17.0714L16.6367 19.4906C16.3993 18.202 16.0171 17.0293 15.3416 15.3632C15.1391 14.8637 15.2796 14.2906 15.6901 13.9414L19.155 10.994C18.1406 10.8759 17.175 10.8497 15.8709 10.8896C15.4108 10.9037 14.9801 10.6638 14.75 10.2651L12.0457 5.57961Z" fill="#5D3CA4"/>
</svg>
