<svg width="21" height="21" viewBox="0 0 21 21" fill="none" xmlns="http://www.w3.org/2000/svg">
<path d="M17.1105 6.80852L5.46224 17.8947C4.31094 18.9924 2.89209 19.8495 1.36603 20.3849L0.910333 20.8396C0.803302 20.9467 0.669731 21.0002 0.535942 21.0002C0.40206 21.0002 0.267654 20.9467 0.160548 20.8396C-0.0534426 20.6254 -0.0535895 20.304 0.160548 20.0898L0.616241 19.6352C1.15177 18.1089 2.00865 16.7161 3.10649 15.5379L14.1917 3.86358L17.1105 6.80852ZM13.5995 0.757039C14.1617 0.757039 14.6974 0.971743 15.099 1.37333L15.8488 2.12311L16.0365 1.93542L17.5361 3.46209L19.0357 4.96166L17.8844 6.05873L14.9384 3.11379L15.1261 2.89899L14.3764 2.14921C13.9479 1.74782 13.2512 1.74765 12.8497 2.14921L11.1634 3.83648C10.3601 4.63977 9.28856 5.12157 8.13718 5.14835H8.11108C7.81654 5.14835 7.57509 4.934 7.57509 4.63946C7.5486 4.3451 7.78959 4.07737 8.08398 4.07737C8.94065 4.02382 9.77072 3.67623 10.3865 3.06059L12.0738 1.37333C12.5021 0.97179 13.0373 0.757148 13.5995 0.757039ZM19.4392 0.225063C19.8139 -0.0959635 20.3759 -0.0694367 20.7239 0.278261C21.072 0.626349 21.0991 1.18917 20.751 1.56404C20.751 1.59076 20.7507 1.59051 20.7239 1.61723L19.948 2.39412C20.0283 2.60827 20.0544 2.82268 20.0544 3.06361C20.0544 3.46521 19.9478 3.8404 19.7603 4.16168L16.8144 1.21574C17.3767 0.894425 18.02 0.840934 18.6091 1.05515L19.385 0.278261C19.4117 0.251521 19.4124 0.251827 19.4392 0.225063Z" fill="#AA7FFB"/>
</svg>
