<svg width="17" height="20" viewBox="0 0 17 20" fill="none" xmlns="http://www.w3.org/2000/svg">
<path d="M16.2418 0H0.75826C0.333634 0 0 0.321417 0 0.714286V19.2857C0 19.6786 0.333634 20 0.75826 20H12.7235C12.9661 20 13.2012 19.8857 13.3377 19.7L16.8635 15.0573C16.9545 14.9358 17 14.793 17 14.643V0.714286C17 0.321417 16.6664 0 16.2418 0ZM8.50004 14.4571H4.52675C4.1097 14.4571 3.76849 14.1357 3.76849 13.7429C3.76849 13.35 4.1097 13.0286 4.52675 13.0286H8.50004C8.91709 13.0286 9.2583 13.35 9.2583 13.7429C9.2583 14.1357 8.91709 14.4571 8.50004 14.4571ZM12.4733 10.7143H4.52675C4.1097 10.7143 3.76849 10.3929 3.76849 10C3.76849 9.60713 4.1097 9.28571 4.52675 9.28571H12.4733C12.8904 9.28571 13.2316 9.60713 13.2316 10C13.2316 10.3929 12.8904 10.7143 12.4733 10.7143ZM12.4733 6.97143H4.52675C4.1097 6.97143 3.76849 6.65001 3.76849 6.25714C3.76849 5.86427 4.1097 5.54286 4.52675 5.54286H12.4733C12.8904 5.54286 13.2316 5.86427 13.2316 6.25714C13.2316 6.65001 12.8904 6.97143 12.4733 6.97143Z" fill="#AA7FFB"/>
</svg>
