<svg width="18" height="18" viewBox="0 0 18 18" fill="none" xmlns="http://www.w3.org/2000/svg">
<path d="M9.62789 2.70019C9.62789 1.20919 10.7526 0 12.1394 0C13.5263 0 14.651 1.20919 14.651 2.70019C16.0378 2.70019 17.1625 3.90938 17.1625 5.40039C17.1625 6.1826 16.8478 6.88213 16.3534 7.3749C17.3125 7.75461 18 8.73766 18 9.90034C18 11.1061 17.2591 12.1162 16.2443 12.4621C16.2921 12.6511 16.3259 12.8451 16.3259 13.0502C16.3259 14.1404 15.6046 15.0484 14.6471 15.2551C14.6471 15.2703 14.651 15.2846 14.651 15.2998C14.651 16.7908 13.5263 18 12.1394 18C10.7526 18 9.62788 16.7908 9.62788 15.2998L9.62789 2.70019ZM8.37211 2.70019C8.37211 1.20919 7.2474 0 5.86056 0C4.47372 0 3.34901 1.20919 3.34901 2.70019C1.96217 2.70019 0.837452 3.90938 0.837452 5.40039C0.837452 6.1826 1.15218 6.88213 1.64663 7.3749C0.687543 7.75461 0 8.73766 0 9.90034C0 11.1061 0.740908 12.1162 1.75574 12.4621C1.70786 12.6511 1.67411 12.8451 1.67411 13.0502C1.67411 14.1404 2.39539 15.0484 3.35293 15.2551C3.35293 15.2703 3.34901 15.2846 3.34901 15.2998C3.34901 16.7908 4.47372 18 5.86056 18C7.2474 18 8.37212 16.7908 8.37212 15.2998L8.37211 2.70019Z" fill="black"/>
</svg>
